<?xml version="1.0" encoding="utf-8"?>
<!-- Generator: Adobe Illustrator 23.0.0, SVG Export Plug-In . SVG Version: 6.00 Build 0)  -->
<svg version="1.1" id="图层_1" xmlns="http://www.w3.org/2000/svg" xmlns:xlink="http://www.w3.org/1999/xlink" x="0px" y="0px"
	 viewBox="0 0 263.1 200" style="enable-background:new 0 0 263.1 200;" xml:space="preserve">
<style type="text/css">
	.st0{opacity:0.2;fill:none;stroke:#000000;stroke-width:4;stroke-miterlimit:10;}
	.st1{fill:#D1D1D1;}
	.st2{fill:none;}
</style>
<path class="st0" d="M24.3,95.9c-3.8,0-7,4.4-7,8.9s4.2,8.4,11.7,8.4c2.7,0,5.8,4.8,5.8,8.7c0,3.9-3.4,9.2-6.9,9.2H10.8
	c-7.5,0-10.8,3.7-10.8,8.6c0,4.9,2.1,9.2,10.8,9.2h83.9l-23.3-53L24.3,95.9L24.3,95.9z M239.4,120.2c2.5,0,4.7-2.9,4.7-5.9
	c0-2.9-2.8-5.6-7.7-5.6c-1.8,0-3.8-3.2-3.8-5.8c0-2.6,2.3-6.1,4.6-6.1h11.3c5,0,7.2-2.5,7.2-5.7s-1.4-6.1-7.2-6.1h-52.6l1.3,35
	L239.4,120.2L239.4,120.2z"/>
<path class="st1" d="M105.5,197.8H60.1c-1,0-1.8-0.8-1.8-1.8s0.8-1.8,1.8-1.8l0,0h45.3c1,0,1.8,0.8,1.8,1.8
	C107.3,197,106.5,197.8,105.5,197.8L105.5,197.8z M64.6,188.8H22.4c-1,0-1.8-0.8-1.8-1.8s0.8-1.8,1.8-1.8l0,0h42.2
	c1,0,1.8,0.8,1.8,1.8S65.6,188.8,64.6,188.8z M49.4,197.8h-6.3c-1,0-1.8-0.8-1.8-1.8s0.8-1.8,1.8-1.8h6.3c1,0,1.8,0.8,1.8,1.8
	S50.4,197.8,49.4,197.8z M34.1,197.8h-9c-1,0-1.8-0.8-1.8-1.8s0.8-1.8,1.8-1.8h9c1,0,1.8,0.8,1.8,1.8
	C35.9,197,35.1,197.8,34.1,197.8z M16.2,197.8h-9c-1,0-1.8-0.8-1.8-1.8s0.8-1.8,1.8-1.8h9c1,0,1.8,0.8,1.8,1.8
	S17.1,197.8,16.2,197.8z M253.6,188.8h-52.1c-1,0-1.8-0.8-1.8-1.8s0.8-1.8,1.8-1.8h52.1c1,0,1.8,0.8,1.8,1.8
	C255.4,188,254.6,188.8,253.6,188.8L253.6,188.8z M261.2,197.8h-8c-1,0-1.8-0.8-1.8-1.8s0.8-1.8,1.8-1.8h8c1,0,1.8,0.8,1.8,1.8
	S262.2,197.8,261.2,197.8L261.2,197.8z M244.2,197.8h-9c-1,0-1.8-0.8-1.8-1.8s0.8-1.8,1.8-1.8h9c1,0,1.8,0.8,1.8,1.8
	S245.2,197.8,244.2,197.8z M226.3,197.8h-9c-1,0-1.8-0.8-1.8-1.8s0.8-1.8,1.8-1.8h9c1,0,1.8,0.8,1.8,1.8S227.3,197.8,226.3,197.8z
	 M205.2,197.8h-30.6c-1,0-1.8-0.8-1.8-1.8s0.8-1.8,1.8-1.8h30.6c1,0,1.8,0.8,1.8,1.8S206.2,197.8,205.2,197.8L205.2,197.8z"/>
<path class="st2" d="M58.6,92l8.7,89.6l70.2,14.7V110L58.6,92z"/>
<path class="st1" d="M139.3,198.4L65.6,183l-9.1-93.3l82.7,18.8v89.9H139.3z M68.9,180l66.8,14v-82.6L60.6,94.3L68.9,180L68.9,180z"
	/>
<path class="st2" d="M209.9,89.5l-72.6,21.3V196l67.9-15.1L209.9,89.5z"/>
<path class="st1" d="M135.5,198.3v-88.8l76.3-22.4l-4.9,95.3L135.5,198.3L135.5,198.3z M139.1,112.2v81.6l64.4-14.3L208,92
	L139.1,112.2z"/>
<path class="st2" d="M209.9,89.9l-70.9,19l34.4,34.4l56.5-17.7L209.9,89.9z"/>
<path class="st1" d="M172.9,145.3l-37.4-37.4l75.2-20.1l21.7,38.7L172.9,145.3z M142.5,109.8l31.4,31.4l53.3-16.7L209,92
	L142.5,109.8L142.5,109.8z"/>
<path class="st2" d="M209,92l7.3,29.3l-42.5,19.8l53.4-16.6L209,92L209,92z M139,110.9v83.5l64.8-15l-59.2,7.1L139,110.9L139,110.9z
	 M207.6,90l-71.9-18.2L61.3,89.9l77.3,19.4L207.6,90z"/>
<path class="st1" d="M138.6,111.2l-0.5-0.1L60.9,91.7v-3.5l74.8-18.3l78.9,20L138.6,111.2L138.6,111.2z M68.8,89.9l69.8,17.5
	l62-17.4l-65-16.5C135.6,73.6,68.8,89.9,68.8,89.9z"/>
<path class="st1" d="M111.3,88.8c-1,0-1.8-0.7-1.9-1.7c0-1,0.7-1.8,1.7-1.9c3.1-0.4,6.1-0.8,8.8-1.3c1-0.1,1.9,0.6,2,1.6
	c0.1,0.9-0.5,1.8-1.4,2c-2.8,0.5-5.8,0.9-9,1.3C111.5,88.7,111.3,88.8,111.3,88.8z M129,85.7c-1,0-1.8-0.8-1.8-1.8
	c0-0.8,0.6-1.5,1.4-1.7c2.8-0.7,5.6-1.5,8.3-2.6c0.9-0.4,2,0,2.4,0.9s0,2-0.9,2.4c0,0-0.1,0-0.1,0.1c-2.9,1.1-5.8,2.1-8.8,2.8
	C129.3,85.7,129.1,85.7,129,85.7L129,85.7L129,85.7z M145,78.2c-1,0-1.8-0.8-1.8-1.8c0-0.4,0.2-0.9,0.4-1.2c0.4-0.4,0.7-0.9,1-1.5
	c0.7-1.4,1-3,1.1-4.5c0-0.3,0-0.7-0.1-1c-0.1-1,0.6-1.9,1.6-2s1.9,0.6,2,1.6v0.1c0,0.5,0.1,0.9,0.1,1.4c0,2.1-0.5,4.1-1.4,6
	c-0.4,0.8-0.9,1.6-1.5,2.3C146.1,78,145.6,78.2,145,78.2L145,78.2z M144,61.7c-0.6,0-1.2-0.3-1.5-0.8c-0.9-1.3-1.9-2.6-2.8-3.9
	c-0.8-1.1-1.6-2.2-2.4-3.3c-0.6-0.8-0.4-1.9,0.4-2.5c0.8-0.6,1.9-0.4,2.5,0.4c0.8,1.1,1.6,2.2,2.4,3.2c1,1.3,2,2.7,2.9,4.1
	c0.5,0.8,0.3,1.9-0.5,2.5C144.7,61.6,144.4,61.7,144,61.7L144,61.7L144,61.7z M134.6,46.5c-0.8,0-1.5-0.5-1.7-1.3
	c-0.5-1.6-0.7-3.2-0.7-4.9s0.2-3.3,0.7-5c0.3-1,1.3-1.5,2.3-1.2c0.9,0.3,1.4,1.2,1.2,2.2c-0.4,1.3-0.6,2.6-0.6,4
	c0,1.3,0.2,2.6,0.6,3.9c0.3,1-0.3,1.9-1.2,2.2C135,46.4,134.8,46.5,134.6,46.5L134.6,46.5z M138.6,29.6c-1,0-1.8-0.9-1.7-1.8
	c0-0.3,0.1-0.7,0.3-1c1.8-2.6,4-4.9,6.4-6.9c0.8-0.6,1.9-0.4,2.5,0.4c0.5,0.7,0.4,1.6-0.2,2.2c-2.2,1.8-4.1,4-5.8,6.3
	C139.8,29.3,139.3,29.6,138.6,29.6C138.7,29.6,138.6,29.6,138.6,29.6z M152,17.9c-1,0-1.8-0.8-1.8-1.8c0-0.6,0.3-1.2,0.9-1.6
	c2.7-1.5,5.4-2.9,8.3-4c0.9-0.3,2,0.1,2.3,1.1c0.3,0.9-0.1,1.9-1,2.3c-2.7,1.1-5.3,2.3-7.9,3.8C152.7,17.8,152.4,17.9,152,17.9
	L152,17.9L152,17.9z M168.6,11.1c-1,0-1.8-0.8-1.8-1.8c0-0.8,0.5-1.5,1.3-1.7c2.9-0.8,5.9-1.6,8.8-2.2c1-0.2,1.9,0.4,2.1,1.4
	c0.2,1-0.4,1.9-1.4,2.1l0,0c-2.9,0.6-5.7,1.3-8.6,2.1C169,11.1,168.8,11.1,168.6,11.1L168.6,11.1L168.6,11.1z M197.9,0.5L185.4,11
	l-3.8-11C181.6,0,197.9,0.5,197.9,0.5z"/>
<path class="st2" d="M58.3,88.9l-25.9,42.7l78.2,21.5l27.5-43.5L58.3,88.9z"/>
<path class="st1" d="M111.4,155.2l-81.8-22.5l27.8-45.8l83.5,21.6L111.4,155.2L111.4,155.2z M35.2,130.5l74.6,20.5l25.5-40.3
	L59.1,91L35.2,130.5z"/>
</svg>
